<svg width="8" height="8" viewBox="0 0 8 8" fill="none" xmlns="http://www.w3.org/2000/svg">
<g clip-path="url(#clip0)">
<path d="M7.56584 3.44284H4.55813V0.435107C4.55813 0.298092 4.37207 0.000999451 3.99998 0.000999451C3.62789 0.000999451 3.44184 0.298108 3.44184 0.435107V3.44286H0.434107C0.297109 3.44284 0 3.62889 0 4.00097C0 4.37304 0.297109 4.55911 0.434107 4.55911H3.44186V7.56686C3.44186 7.70384 3.62789 8.00097 4 8.00097C4.37211 8.00097 4.55814 7.70384 4.55814 7.56686V4.55911H7.56589C7.70288 4.55911 8 4.37307 8 4.00097C8 3.62886 7.70284 3.44284 7.56584 3.44284Z" fill="white"/>
</g>
<defs>
<clipPath id="clip0">
<rect width="8" height="8" fill="white"/>
</clipPath>
</defs>
</svg>
