<svg width="40" height="40" viewBox="0 0 40 40" fill="none" xmlns="http://www.w3.org/2000/svg">
<g clip-path="url(#clip0)">
<path d="M39.9999 12.2984C39.9968 13.0703 39.7561 13.8383 39.2849 14.4719L39.2732 14.4875L22.713 36.0023C22.3848 36.4406 21.9738 36.7859 21.5112 37.0219C21.3237 37.1172 21.1268 37.1945 20.9244 37.2531C20.6275 37.3383 20.3173 37.3828 20.0001 37.3828C19.6851 37.3828 19.3773 37.3391 19.0827 37.2547C18.3779 37.0539 17.7497 36.6211 17.2871 36.0023L0.715068 14.4719C0.243897 13.8383 0.00397475 13.0703 6.85052e-05 12.2984C-0.00461899 11.6531 0.1571 11.0055 0.488428 10.4328L3.6289 4.34766L3.64608 4.31797C4.27671 3.25313 5.37061 2.61719 6.57241 2.61719H33.4276C34.6294 2.61719 35.7233 3.25313 36.3539 4.31797L36.3867 4.37734L39.5108 10.4328C39.8421 11.0055 40.0038 11.6531 39.9999 12.2984Z" fill="#CEF8FF"/>
<path d="M39.9999 12.2984C39.9968 13.0703 39.7561 13.8383 39.2849 14.4719L39.2732 14.4875L22.713 36.0023C22.3848 36.4406 21.9738 36.7859 21.5112 37.0219C21.3237 37.1172 21.1268 37.1945 20.9244 37.2531C20.6275 37.3383 20.3173 37.3828 20.0001 37.3828V2.61719H33.4276C34.6294 2.61719 35.7234 3.25313 36.354 4.31797L36.3868 4.37734L39.5108 10.4328C39.8421 11.0055 40.0038 11.6531 39.9999 12.2984Z" fill="#50E6FF"/>
<path d="M39.9999 12.2984H6.85052e-05C-0.00461899 11.6531 0.1571 11.0055 0.488428 10.4328L3.6289 4.34766L3.64608 4.31797C4.27671 3.25313 5.37061 2.61719 6.57241 2.61719H33.4276C34.6294 2.61719 35.7233 3.25313 36.3539 4.31797L36.3867 4.37734L39.5108 10.4328C39.8421 11.0055 40.0038 11.6531 39.9999 12.2984Z" fill="#62EBFF"/>
<path d="M39.9999 12.2984H20V2.61719H33.4276C34.6294 2.61719 35.7234 3.25313 36.3539 4.31797L36.3867 4.37734L39.5108 10.4328C39.8421 11.0055 40.0038 11.6531 39.9999 12.2984Z" fill="#31CAFF"/>
<path d="M28.908 12.2984L20.9244 37.2531C20.6274 37.3383 20.3173 37.3828 20 37.3828C19.6851 37.3828 19.3773 37.3391 19.0826 37.2547L11.1702 12.2984L20 2.61719L28.908 12.2984Z" fill="#50E6FF"/>
<path d="M28.908 12.2984L20.9244 37.2531C20.6274 37.3383 20.3173 37.3828 20 37.3828V2.61719L28.908 12.2984Z" fill="#31CAFF"/>
<path d="M28.908 12.2984H11.1702L20 2.61719L28.908 12.2984Z" fill="#CEF8FF"/>
<path d="M28.908 12.2984H20V2.61719L28.908 12.2984Z" fill="#50E6FF"/>
</g>
<defs>
<clipPath id="clip0">
<rect width="40" height="40" fill="white"/>
</clipPath>
</defs>
</svg>
