<svg width="24" height="22" viewBox="0 0 24 22" fill="none" xmlns="http://www.w3.org/2000/svg">
<path d="M12.4875 9.42946C12.2282 9.68881 12.2282 10.1047 12.4875 10.3641C13.5592 11.4357 13.5592 13.1777 12.4875 14.2493L6.86032 19.8765C5.7887 20.9481 4.04671 20.9481 2.97509 19.8765L2.12856 19.03C1.05694 17.9584 1.05694 16.2164 2.12856 15.1448L7.75578 9.51754C8.01512 9.2582 8.01512 8.84228 7.75578 8.58293C7.49644 8.32359 7.08051 8.32359 6.82117 8.58293L1.19395 14.2102C0.425712 14.9784 0 16.0011 0 17.0874C0 18.1737 0.420818 19.1964 1.19395 19.9646L2.04048 20.8111C2.83318 21.6038 3.87544 22.0002 4.9177 22.0002C5.95996 22.0002 7.00222 21.6038 7.79493 20.8111L13.4221 15.1839C15.0076 13.5985 15.0076 11.0149 13.4221 9.42946C13.1677 9.17012 12.7469 9.17012 12.4875 9.42946Z" fill="white"/>
<path d="M22.4358 2.03559L21.5893 1.18906C20.0039 -0.396352 17.4202 -0.396352 15.8348 1.18906L10.2076 6.81628C8.6222 8.40169 8.6222 10.9853 10.2076 12.5707C10.467 12.8301 10.8829 12.8301 11.1422 12.5707C11.4016 12.3114 11.4016 11.8955 11.1422 11.6361C10.0706 10.5645 10.0706 8.82251 11.1422 7.75089L16.7694 2.12367C17.8411 1.05205 19.583 1.05205 20.6547 2.12367L21.5012 2.9702C22.5728 4.04181 22.5728 5.78381 21.5012 6.85543L15.874 12.4827C15.6146 12.742 15.6146 13.1579 15.874 13.4173C16.0012 13.5445 16.1725 13.613 16.3388 13.613C16.5052 13.613 16.6765 13.5494 16.8037 13.4173L22.4309 7.79003C23.1991 7.0218 23.6248 5.99911 23.6248 4.91281C23.6248 3.82651 23.204 2.80383 22.4358 2.03559Z" fill="white"/>
</svg>
