<svg width="14" height="15" viewBox="0 0 14 15" fill="none" xmlns="http://www.w3.org/2000/svg">
<path d="M0.803377 14.002C0.59502 14.002 0.394677 13.9219 0.234402 13.7696C-0.0781339 13.4571 -0.0781339 12.9522 0.234402 12.6397L12.6317 0.234402C12.9442 -0.0781339 13.4491 -0.0781339 13.7616 0.234402C14.0741 0.546938 14.0741 1.0518 13.7616 1.36434L1.37235 13.7616C1.21208 13.9219 1.01173 14.002 0.803377 14.002Z" fill="#4F453C"/>
<path d="M13.2011 14.0025C12.9928 14.0025 12.7924 13.9224 12.6321 13.7701L0.23489 1.37288C-0.0776457 1.06035 -0.0776457 0.555483 0.23489 0.242947C0.547426 -0.069589 1.05229 -0.069589 1.36483 0.242947L13.7621 12.6402C14.0746 12.9527 14.0746 13.4576 13.7621 13.7701C13.6098 13.9224 13.4015 14.0025 13.2011 14.0025Z" fill="#4F453C"/>
</svg>
