<svg width="30" height="30" viewBox="0 0 30 30" fill="none" xmlns="http://www.w3.org/2000/svg">
<path d="M24.4954 21.173H20.9614C20.231 21.1725 19.5131 21.3615 18.8776 21.7215C18.3367 22.0283 17.8688 22.4489 17.5063 22.9542C17.2648 22.912 17.0201 22.8909 16.7749 22.8911H13.2378C12.9926 22.8909 12.7479 22.912 12.5064 22.9542C12.1439 22.4488 11.676 22.0283 11.1351 21.7215C10.4996 21.3615 9.7816 21.1725 9.05125 21.173H5.51729C3.16899 21.1782 1.26662 23.0806 1.26141 25.4289V27.8279C1.26315 28.0792 1.46727 28.2819 1.71853 28.2819H8.96928V29.5429C8.96928 29.7953 9.17396 30 9.4264 30H20.5736C20.8261 30 21.0308 29.7953 21.0308 29.5429V28.2819H28.2815C28.5339 28.2819 28.7386 28.0772 28.7386 27.8248V25.4289C28.7334 23.0855 26.8387 21.1851 24.4954 21.173ZM9.01657 26.7372V26.8349C9.01657 26.879 9.01657 26.92 9.01657 26.9641V27.147V27.3677H2.17564V25.4289C2.18084 23.5854 3.67387 22.0924 5.51729 22.0872H9.05125C9.62351 22.0866 10.1861 22.2343 10.6842 22.516C11.0182 22.7048 11.3177 22.949 11.5701 23.2379C10.1476 23.8553 9.17065 25.1942 9.01657 26.7372ZM20.1071 27.147V29.0889H9.89612V27.1123C9.89612 27.0766 9.89612 27.0419 9.89612 27.0083C9.89612 26.9537 9.89612 26.899 9.89612 26.8443V26.7624C9.89612 26.7309 9.89612 26.6993 9.89612 26.6678V26.5669V26.5354V26.5007V26.4314L9.91503 26.3557L9.94656 26.2422L9.96863 26.1666C10.4215 24.794 11.7011 23.8648 13.1463 23.8589L13.2378 23.8085H16.7749C18.4534 23.8146 19.8689 25.0604 20.0882 26.7245C20.0882 26.7939 20.0882 26.8633 20.1071 26.9326C20.1071 27.0041 20.1071 27.0755 20.1071 27.147ZM27.837 27.3708H21.0276V27.0965C21.0276 27.0619 21.0276 27.0272 21.0276 26.9925C21.0276 26.9568 21.0276 26.921 21.0276 26.8853C21.0276 26.8349 21.0276 26.7813 21.0276 26.7309V26.6836V26.63V26.5322V26.5165V26.4787V26.444V26.4219V26.3809V26.3368V26.3147V26.2863V26.258V26.2296V26.1602V26.1287V26.0877V26.0468L21.0055 25.9679V25.9364V25.9081V25.886V25.8545V25.8135L20.9614 25.6905C20.5506 24.5986 19.7129 23.721 18.6412 23.2599C18.8308 22.9792 19.0614 22.7284 19.3253 22.516C19.8233 22.2343 20.386 22.0866 20.9582 22.0872H24.4954C26.3387 22.0924 27.8318 23.5854 27.837 25.4289V27.3708Z" fill="black"/>
<path d="M15.0252 6.65257C15.3107 6.65257 15.5422 6.42109 15.5422 6.13556C15.5422 5.85002 15.3107 5.61855 15.0252 5.61855C14.7397 5.61855 14.5082 5.85002 14.5082 6.13556C14.5082 6.42109 14.7397 6.65257 15.0252 6.65257Z" fill="black"/>
<path d="M9.55875 14.909C8.95638 14.3031 8.13705 13.9626 7.28264 13.9632C5.50502 13.9617 4.06267 15.4014 4.0611 17.1791C4.05952 18.9567 5.49927 20.3991 7.27696 20.4006C9.05466 20.4022 10.4969 18.9625 10.4985 17.1848C10.4992 16.3316 10.1613 15.5131 9.55875 14.909ZM8.91248 18.8086C8.01268 19.7087 6.55362 19.7091 5.65343 18.8093C4.75331 17.9094 4.75299 16.4504 5.6528 15.5502C6.5526 14.6501 8.01166 14.6498 8.91185 15.5496C9.34406 15.9816 9.58696 16.5677 9.58712 17.1788C9.58798 17.7902 9.34524 18.3767 8.91248 18.8086Z" fill="black"/>
<path d="M18.3669 6.65257C18.6524 6.65257 18.8839 6.42109 18.8839 6.13556C18.8839 5.85002 18.6524 5.61855 18.3669 5.61855C18.0813 5.61855 17.8499 5.85002 17.8499 6.13556C17.8499 6.42109 18.0813 6.65257 18.3669 6.65257Z" fill="black"/>
<path d="M20.3908 1.79141C18.8487 0.605437 16.9515 -0.0254577 15.0063 0.000786925C13.061 -0.0254577 11.1639 0.605437 9.62181 1.79141C8.20949 2.92 7.33624 4.48995 7.33624 6.22698C7.33798 7.10921 7.56243 7.9767 7.98881 8.74898C8.39454 9.47855 8.93976 10.1213 9.59343 10.6405L9.2309 13.0521C9.19315 13.3 9.36354 13.5315 9.6114 13.5692C9.7141 13.5848 9.819 13.5648 9.90868 13.5124L12.3739 12.0749C12.7646 12.191 13.1628 12.2806 13.5656 12.3428C14.0433 12.4164 14.5261 12.4533 15.0094 12.4532C16.9547 12.4794 18.8519 11.8485 20.3939 10.6625C21.8031 9.5308 22.6763 7.96401 22.6763 6.22698C22.6763 4.48995 21.8031 2.92 20.3908 1.79141ZM19.8233 9.95639C18.4405 11.0085 16.7435 11.5638 15.0063 11.5326C14.5704 11.5333 14.1352 11.5006 13.7043 11.4349C13.2768 11.371 12.8552 11.273 12.4433 11.1417C12.3211 11.1032 12.1883 11.118 12.0776 11.1827L10.2775 12.2451L10.5392 10.5112C10.5642 10.3419 10.4924 10.1727 10.3532 10.073C9.70661 9.60512 9.16887 9.00291 8.77694 8.30763C8.42638 7.67012 8.24211 6.9545 8.24101 6.22698C8.24101 4.77683 8.98185 3.45908 10.1798 2.50072C11.5626 1.44865 13.2596 0.893339 14.9968 0.92447C16.7341 0.893339 18.4311 1.44865 19.8138 2.50072C21.0118 3.44647 21.7526 4.77683 21.7526 6.22698C21.7526 7.67713 21.0213 8.99488 19.8233 9.95639Z" fill="black"/>
<path d="M22.7325 13.9601C20.9549 13.9585 19.5126 15.3982 19.511 17.1759C19.5102 18.0291 19.8482 18.8477 20.4507 19.4517C21.0531 20.0576 21.8725 20.3981 22.7269 20.3975C24.5045 20.3991 25.9468 18.9593 25.9484 17.1816C25.95 15.4039 24.5102 13.9616 22.7325 13.9601ZM24.3598 18.8073C23.46 19.7074 22.0009 19.7077 21.1007 18.8079C20.6685 18.3759 20.4256 17.7898 20.4255 17.1787C20.4246 16.5673 20.6673 15.9807 21.1001 15.5489C21.9999 14.6487 23.4589 14.6484 24.3591 15.5482C25.2593 16.448 25.2596 17.9072 24.3598 18.8073Z" fill="black"/>
<path d="M11.6836 6.65257C11.9691 6.65257 12.2006 6.42109 12.2006 6.13556C12.2006 5.85002 11.9691 5.61855 11.6836 5.61855C11.398 5.61855 11.1666 5.85002 11.1666 6.13556C11.1666 6.42109 11.398 6.65257 11.6836 6.65257Z" fill="black"/>
<path d="M17.2777 16.616C16.6746 16.015 15.8577 15.6778 15.0063 15.6782C14.1519 15.6775 13.3325 16.018 12.7302 16.6239C11.4766 17.8819 11.4801 19.9178 12.7381 21.1714C13.996 22.425 16.032 22.4215 17.2855 21.1635C18.5391 19.9056 18.5356 17.8696 17.2777 16.616ZM15.0057 21.2039C13.7329 21.2035 12.7015 20.1714 12.7018 18.8988C12.7021 17.6261 13.7343 16.5946 15.0069 16.5949C15.618 16.5951 16.2041 16.838 16.6361 17.2702C17.0689 17.7021 17.3116 18.2886 17.3108 18.9C17.3104 20.1728 16.2783 21.2042 15.0057 21.2039Z" fill="black"/>
</svg>
