<svg width="30" height="30" viewBox="0 0 30 30" fill="none" xmlns="http://www.w3.org/2000/svg">
<g clip-path="url(#clip0)">
<path d="M13.8431 20.3476C14.0722 20.1185 14.0722 19.7477 13.8431 19.5186C13.6137 19.2902 13.2422 19.2902 13.0127 19.5186C12.7838 19.7477 12.7838 20.1185 13.0127 20.3476C13.2422 20.576 13.6137 20.576 13.8431 20.3476Z" fill="black"/>
<path d="M11.0635 6.44348C11.0635 9.99642 13.9597 12.8872 17.5196 12.8872C21.0795 12.8872 23.9757 9.99642 23.9757 6.44348C23.9757 2.89055 21.0795 0 17.5196 0C13.9597 0 11.0635 2.89055 11.0635 6.44348ZM22.802 6.44348C22.802 9.35051 20.4323 11.7156 17.5196 11.7156C14.6069 11.7156 12.2372 9.35051 12.2372 6.44348C12.2372 3.53668 14.6069 1.17165 17.5196 1.17165C20.4323 1.17165 22.802 3.53668 22.802 6.44348Z" fill="black"/>
<path d="M6.78977 29.8268C7.01727 30.0556 7.38764 30.0582 7.61811 29.8316L10.4636 27.0337C10.9471 26.5512 11.0941 25.8369 10.8815 25.2159L11.4936 24.6268C11.8231 24.3091 12.257 24.134 12.7157 24.134H20.5181C21.9024 24.134 23.2107 23.6035 24.2026 22.6401C24.2434 22.6005 23.8927 23.0127 29.5255 16.2937C30.361 15.3072 30.236 13.8259 29.2467 12.9911C28.2635 12.1642 26.7908 12.283 25.953 13.2525L22.4897 16.8052C22.0524 16.268 21.3855 15.9332 20.6649 15.9332H14.1201C13.1888 15.5443 12.2006 15.3475 11.181 15.3475C8.35472 15.3475 5.8869 16.6503 4.56252 19.0929C4.00456 18.9874 3.4161 19.1558 2.99276 19.5783L0.200671 22.3732C-0.0272825 22.6014 -0.0277411 22.9706 0.199754 23.1995L6.78977 29.8268ZM11.1808 16.5189C12.0797 16.5189 12.9489 16.6995 13.7646 17.0556C13.8389 17.0881 13.9189 17.1048 13.9999 17.1048H20.6649C21.3013 17.1048 21.8389 17.6228 21.8389 18.2762C21.8389 18.9224 21.3123 19.4479 20.6649 19.4479H15.8763C15.5522 19.4479 15.2894 19.7102 15.2894 20.0336C15.2894 20.3572 15.5522 20.6193 15.8763 20.6193H20.6649C21.9595 20.6193 23.0126 19.5683 23.0126 18.2762C23.0126 18.1732 23.0052 18.0712 22.9919 17.97C26.3422 14.5329 26.8146 14.0499 26.8348 14.0259C27.2531 13.5331 27.9957 13.4706 28.4896 13.8863C28.9841 14.3035 29.0467 15.0442 28.6272 15.5397L23.363 21.8207C22.5943 22.5572 21.585 22.9626 20.5181 22.9626H12.7157C11.9511 22.9626 11.2273 23.2544 10.6783 23.7838L10.1795 24.2642L5.58144 19.6754C6.65607 17.6633 8.67257 16.5189 11.1808 16.5189ZM3.82339 20.4062C4.01695 20.213 4.31416 20.1782 4.55014 20.3238C4.65173 20.3856 4.36002 20.1206 9.63369 25.3766C9.8683 25.6108 9.85568 25.9838 9.6369 26.2022L7.21105 28.5874L1.4441 22.7877L3.82339 20.4062Z" fill="black"/>
<path d="M16.8153 2.929V3.61542C16.1322 3.85712 15.6414 4.50829 15.6414 5.27207C15.6414 6.24092 16.4312 7.02942 17.4022 7.02942C17.7258 7.02942 17.989 7.29218 17.989 7.61513C17.989 7.93808 17.7258 8.20084 17.4022 8.20084C17.1515 8.20084 16.8807 8.0436 16.6401 7.75772C16.4314 7.51007 16.0613 7.47826 15.8132 7.68631C15.565 7.89459 15.5329 8.26401 15.7416 8.51166C16.0553 8.88405 16.4243 9.1436 16.8153 9.27452V9.95819C16.8153 10.2818 17.0781 10.5439 17.4022 10.5439C17.7262 10.5439 17.989 10.2818 17.989 9.95819V9.27178C18.6722 9.02985 19.163 8.37868 19.163 7.61513C19.163 6.64604 18.3732 5.85777 17.4022 5.85777C17.0786 5.85777 16.8153 5.59502 16.8153 5.27207C16.8153 4.94911 17.0786 4.68613 17.4022 4.68613C17.6102 4.68613 17.8297 4.7921 18.037 4.99237C18.27 5.21736 18.6415 5.21118 18.8669 4.97887C19.0924 4.74632 19.0862 4.37554 18.8534 4.15054C18.5555 3.86284 18.2574 3.7001 17.989 3.6113V2.929C17.989 2.60536 17.7262 2.34306 17.4022 2.34306C17.0781 2.34306 16.8153 2.60536 16.8153 2.929Z" fill="black"/>
</g>
<defs>
<clipPath id="clip0">
<rect width="30" height="30" fill="white"/>
</clipPath>
</defs>
</svg>
