<svg width="21" height="23" viewBox="0 0 21 23" fill="none" xmlns="http://www.w3.org/2000/svg">
<path d="M10.1662 21.2596H4.28411C2.68557 21.2596 1.38855 19.9578 1.38855 18.3641V4.1878C1.38855 2.58925 2.69035 1.29223 4.28411 1.29223H10.2619C10.6208 1.29223 10.908 1.00507 10.908 0.646117C10.908 0.287163 10.6208 0 10.2619 0H4.28411C1.97245 0 0.0963135 1.88092 0.0963135 4.1878V18.3641C0.0963135 20.6757 1.97723 22.5519 4.28411 22.5519H10.1662C10.5251 22.5519 10.8123 22.2647 10.8123 21.9058C10.8123 21.5468 10.5203 21.2596 10.1662 21.2596Z" fill="black"/>
<path d="M20.8104 10.8213L16.7039 6.7149C16.4503 6.46124 16.0435 6.46124 15.7898 6.7149C15.5362 6.96856 15.5362 7.37538 15.7898 7.62904L18.7955 10.6347H5.68646C5.32751 10.6347 5.04034 10.9218 5.04034 11.2808C5.04034 11.6398 5.32751 11.9269 5.68646 11.9269H18.7955L15.7898 14.9326C15.5362 15.1862 15.5362 15.593 15.7898 15.8467C15.9142 15.9711 16.0818 16.0381 16.2445 16.0381C16.4072 16.0381 16.5747 15.9759 16.6992 15.8467L20.8056 11.7403C21.064 11.4818 21.064 11.0702 20.8104 10.8213Z" fill="black"/>
</svg>
