<svg width="30" height="30" viewBox="0 0 30 30" fill="none" xmlns="http://www.w3.org/2000/svg">
<path d="M28.0645 0H1.93547C1.66825 0 1.4516 0.216655 1.4516 0.483871V26.6129C1.4516 26.8801 1.66825 27.0968 1.93547 27.0968V29.5161C1.93547 29.7833 2.15213 30 2.41934 30H5.80644C6.07365 30 6.29031 29.7833 6.29031 29.5161V27.0968H23.7097V29.5161C23.7097 29.7833 23.9263 30 24.1935 30H27.5806C27.8478 30 28.0645 29.7833 28.0645 29.5161V27.0968C28.3317 27.0968 28.5484 26.8801 28.5484 26.6129V0.483871C28.5484 0.216655 28.3317 0 28.0645 0ZM2.41934 0.967742H27.5806V26.129H2.41934V0.967742ZM5.32257 29.0323H2.90321V27.0968H5.32257V29.0323ZM27.0968 29.0323H24.6774V27.0968H27.0968V29.0323Z" fill="#231F20"/>
<path d="M23.7097 24.6774C25.0453 24.6758 26.1274 23.5937 26.129 22.2581V4.83872C26.1274 3.50311 25.0453 2.42102 23.7097 2.41936H6.29033C4.95472 2.42102 3.87263 3.50311 3.87097 4.83872V22.2581C3.87263 23.5937 4.95472 24.6758 6.29033 24.6774H23.7097ZM4.83871 22.2581V4.83872C4.83871 4.03707 5.48868 3.38711 6.29033 3.38711H23.7097C24.5113 3.38711 25.1613 4.03707 25.1613 4.83872V22.2581C25.1613 23.0597 24.5113 23.7097 23.7097 23.7097H6.29033C5.48868 23.7097 4.83871 23.0597 4.83871 22.2581Z" fill="#231F20"/>
<path d="M10.8935 17.6549C11.461 18.2208 12.3793 18.2208 12.9468 17.6549L14.2534 16.3486C14.7429 16.4835 15.2599 16.4835 15.7494 16.3486L17.056 17.6549C17.6247 18.2184 18.5409 18.2184 19.1096 17.6549C19.6769 17.0881 19.6769 16.1683 19.1096 15.6015L17.803 14.295C17.9379 13.8052 17.9379 13.2883 17.803 12.7985L19.1096 11.4919C19.6731 10.9232 19.6731 10.0065 19.1096 9.43784C18.5425 8.87057 17.623 8.87057 17.056 9.43784L15.7494 10.7444C15.2599 10.6095 14.7429 10.6095 14.2534 10.7444L12.9468 9.43784C12.3798 8.87081 11.4605 8.87081 10.8935 9.43784C10.3262 10.0049 10.3262 10.9244 10.8935 11.4915L12.1998 12.798C12.0651 13.2878 12.0651 13.805 12.1998 14.295L10.8935 15.6015C10.326 16.1683 10.326 17.0881 10.8935 17.6549ZM18.4225 16.2858C18.5135 16.3765 18.5645 16.4996 18.5645 16.6283C18.5645 16.7569 18.5135 16.88 18.4225 16.9709C18.2316 17.1559 17.928 17.1559 17.7374 16.9709L16.6791 15.9127C16.9437 15.7237 17.1753 15.4921 17.3643 15.2275L18.4225 16.2858ZM17.7374 10.1258C17.8281 10.0351 17.9512 9.98409 18.0795 9.98409C18.208 9.98409 18.3311 10.0351 18.4218 10.1258C18.6075 10.3168 18.6075 10.6204 18.4218 10.811L17.3643 11.8692C17.1753 11.6046 16.9437 11.3731 16.6791 11.1841L17.7374 10.1258ZM16.9355 13.5484C16.9355 14.6172 16.0689 15.4839 15 15.4839C13.9311 15.4839 13.0645 14.6172 13.0645 13.5484C13.0645 12.4795 13.9311 11.6129 15 11.6129C16.0689 11.6129 16.9355 12.4795 16.9355 13.5484ZM11.5775 10.811C11.3884 10.622 11.3884 10.3151 11.5775 10.1258C11.7667 9.93684 12.0736 9.93684 12.2626 10.1258L13.3209 11.1841C13.0562 11.3731 12.8247 11.6046 12.6357 11.8692L11.5775 10.811ZM11.5775 16.2858L12.6357 15.2275C12.8247 15.4921 13.0562 15.7237 13.3209 15.9127L12.2626 16.9709C12.0736 17.1599 11.7667 17.1599 11.5775 16.9709C11.3884 16.7817 11.3884 16.4748 11.5775 16.2858Z" fill="#231F20"/>
<path d="M15 21.2903C19.2757 21.2903 22.7419 17.8241 22.7419 13.5484C22.7419 9.2727 19.2757 5.80645 15 5.80645C10.7243 5.80645 7.25806 9.2727 7.25806 13.5484C7.26302 17.8219 10.7264 21.2854 15 21.2903ZM15 6.77419C18.7412 6.77419 21.7742 9.80713 21.7742 13.5484C21.7742 17.2896 18.7412 20.3226 15 20.3226C11.2587 20.3226 8.2258 17.2896 8.2258 13.5484C8.22982 9.80878 11.2604 6.77821 15 6.77419Z" fill="#231F20"/>
<path d="M21.7742 21.7742H17.9032C17.636 21.7742 17.4194 21.9908 17.4194 22.2581C17.4194 22.5253 17.636 22.7419 17.9032 22.7419H21.7742C22.0414 22.7419 22.2581 22.5253 22.2581 22.2581C22.2581 21.9908 22.0414 21.7742 21.7742 21.7742Z" fill="#231F20"/>
<path d="M23.2258 22.7419H23.7096C23.9768 22.7419 24.1935 22.5253 24.1935 22.2581C24.1935 21.9908 23.9768 21.7742 23.7096 21.7742H23.2258C22.9585 21.7742 22.7419 21.9908 22.7419 22.2581C22.7419 22.5253 22.9585 22.7419 23.2258 22.7419Z" fill="#231F20"/>
</svg>
